<svg width="32" height="33" viewBox="0 0 32 33" fill="none" xmlns="http://www.w3.org/2000/svg">
<path d="M2 16.4614C2 8.76142 8.3 2.46142 16 2.46143C23.7 2.46143 30 8.76143 30 16.4614C30 24.1614 23.7 30.4614 16 30.4614C8.3 30.4614 2 24.1614 2 16.4614ZM28 16.4614C28 9.86143 22.6 4.46143 16 4.46143C9.4 4.46142 4 9.86142 4 16.4614C4 23.0614 9.4 28.4614 16 28.4614C22.6 28.4614 28 23.0614 28 16.4614ZM23 14.4614L21.6 13.0614L16 18.6614L10.4 13.0614L9 14.4614L16 21.4614L23 14.4614Z" fill="#B4C1CF"/>
</svg>
