<svg width="67" height="66" viewBox="0 0 67 66" fill="none" xmlns="http://www.w3.org/2000/svg">
<g clip-path="url(#clip0_2432_686)">
<path d="M63.8252 20.199C62.1629 16.259 59.7839 12.7211 56.7539 9.68338C53.724 6.64574 50.195 4.26053 46.2652 2.59407C42.3943 0.952644 38.2953 0.0814209 34.0718 4.57768e-05L34.0149 4.73601C49.3174 5.05469 61.671 17.6201 61.6954 33.031C60.9047 52.4306 46.4883 61.2641 33.418 61.2641C20.347 61.2632 5.93087 52.4279 5.14303 33.031C5.16751 17.6202 17.5211 5.05476 32.8235 4.73601L32.7843 -0.000244141C28.5546 0.0789795 24.4496 0.950348 20.5734 2.59407C16.6434 4.26053 13.1145 6.64574 10.0846 9.68338C7.05462 12.7211 4.6755 16.259 3.01329 20.199C1.29181 24.2793 0.419017 28.6122 0.418945 33.0776L0.420806 33.1712C0.820058 43.2868 4.55947 51.7893 11.2348 57.7593C14.2442 60.4509 17.7474 62.5331 21.6469 63.9484C25.3977 65.3096 29.358 66 33.4178 66.0002H33.4203C37.4789 66.0002 41.4385 65.3103 45.1883 63.95C49.088 62.5354 52.5913 60.4535 55.6009 57.7621C62.2765 51.7926 66.0169 43.2893 66.4176 33.1718L66.4195 33.0778C66.4195 28.6125 65.5467 24.2794 63.8252 20.199Z" fill="#C7A750"/>
<path d="M38.3791 14.2693C38.4234 14.2693 38.4643 14.293 38.4865 14.3315L39.7695 16.56C39.7933 16.6013 39.7635 16.6528 39.716 16.6528H33.4205L32.061 14.2846C32.061 14.2846 32.0853 14.2693 32.1163 14.2693H38.3791Z" fill="#E03359"/>
<path d="M34.7368 18.9425L33.4181 16.6519L32.0464 19.0353L34.6834 19.0354C34.7309 19.0354 34.7606 18.9838 34.7368 18.9425Z" fill="#3DBB9F"/>
<path d="M33.4199 16.6514H30.6794L29.3066 19.0346L32.0482 19.0348L33.4199 16.6514Z" fill="white"/>
<path d="M28.9026 19.9258C28.929 19.9717 30.1745 22.1385 30.1861 22.1588C30.1993 22.1819 30.2247 22.1964 30.2247 22.1964L31.5883 19.8281L28.878 19.8282C28.878 19.8282 28.8762 19.8798 28.9026 19.9258Z" fill="white"/>
<path d="M29.7627 16.6516L28.3979 19.0198C28.3979 19.0198 28.4212 19.0347 28.4503 19.0347C28.4794 19.0347 29.3054 19.0348 29.3054 19.0348L30.6782 16.6516H29.7627Z" fill="#3DBB9F"/>
<path d="M36.6566 11.1546C36.6345 11.1162 36.5936 11.0925 36.5494 11.0925H30.2823C30.2545 11.0925 30.2305 11.1073 30.2305 11.1073L31.5926 13.4755L37.8862 13.4758C37.9337 13.4758 37.9634 13.4242 37.9396 13.383L36.6566 11.1546Z" fill="#E03359"/>
<path d="M30.6772 16.6517L33.4177 16.6516L32.0583 14.2842C32.0583 14.2842 32.0333 14.2975 32.0175 14.3247C32.0019 14.352 30.6772 16.6517 30.6772 16.6517Z" fill="#FFC93D"/>
<path d="M29.764 16.6521L27.0524 16.6522C27.0524 16.6522 27.0489 16.7006 27.0811 16.7566C27.1132 16.8125 28.347 18.9592 28.3597 18.9814C28.3743 19.0069 28.3992 19.0204 28.3992 19.0204L29.764 16.6521Z" fill="white"/>
<path d="M31.5888 19.828L30.2251 22.1964C30.2251 22.1964 30.2484 22.2111 30.2778 22.2111C30.3071 22.2111 36.5112 22.2114 36.5112 22.2114C36.5587 22.2114 36.5885 22.1598 36.5647 22.1186L35.2817 19.8901C35.2596 19.8516 35.2186 19.8279 35.1744 19.8279L31.5888 19.828Z" fill="#3DBB9F"/>
<path d="M31.593 13.4754L30.2309 11.1072C30.2309 11.1072 30.206 11.1209 30.1909 11.1471C30.177 11.1712 27.1047 16.5055 27.0774 16.5535C27.0501 16.6016 27.0523 16.6517 27.0523 16.6517H29.7638L31.593 13.4754Z" fill="#FFC93D"/>
<path d="M32.0452 19.0356L29.3036 19.0354C29.3036 19.0354 28.9331 19.6781 28.9042 19.7289C28.8752 19.7797 28.878 19.829 28.878 19.829L31.5884 19.8289L32.0452 19.0356Z" fill="#FFC93D"/>
<path d="M17.9466 35.7263C18.1453 35.5169 18.2449 35.2364 18.2449 34.8849V32.7867C18.2449 32.4421 18.1453 32.1634 17.9466 31.9505C17.7477 31.7377 17.4866 31.6312 17.1631 31.6312C16.8462 31.6312 16.5883 31.7377 16.3896 31.9505C16.1907 32.1634 16.0914 32.4421 16.0914 32.7867V34.8849C16.0914 35.2364 16.1907 35.5169 16.3896 35.7263C16.5883 35.9358 16.8462 36.0405 17.1631 36.0405C17.4866 36.0405 17.7477 35.9358 17.9466 35.7263ZM15.7223 37.1504C15.3078 36.9309 14.9859 36.6217 14.7568 36.2229C14.5276 35.8243 14.4131 35.3614 14.4131 34.8342V32.807C14.4131 32.2935 14.5276 31.839 14.7568 31.4437C14.9859 31.0484 15.3078 30.7409 15.7223 30.5213C16.1368 30.3018 16.6171 30.1919 17.1631 30.1919C17.709 30.1919 18.1909 30.3018 18.6089 30.5213C19.0267 30.7409 19.3502 31.0484 19.5794 31.4437C19.8085 31.839 19.9232 32.2935 19.9232 32.807V34.8342C19.9232 35.3614 19.8085 35.8243 19.5794 36.2229C19.3502 36.6217 19.0267 36.9309 18.6089 37.1504C18.1909 37.3699 17.709 37.4798 17.1631 37.4798C16.6171 37.4798 16.1368 37.3699 15.7223 37.1504Z" fill="white"/>
<path d="M24.8519 30.3082C24.8755 30.2846 24.9041 30.2727 24.9379 30.2727H26.3736C26.4072 30.2727 26.4358 30.2846 26.4594 30.3082C26.483 30.3319 26.4949 30.3606 26.4949 30.3943V37.2464C26.4949 37.2803 26.483 37.309 26.4594 37.3326C26.4358 37.3564 26.4072 37.3681 26.3736 37.3681H24.9985C24.9311 37.3681 24.8838 37.3412 24.857 37.287L22.5316 33.4149C22.518 33.3947 22.5046 33.3863 22.4912 33.3896C22.4776 33.393 22.4709 33.4082 22.4709 33.4352L22.481 37.2464C22.481 37.2803 22.4692 37.309 22.4457 37.3326C22.422 37.3564 22.3934 37.3681 22.3597 37.3681H20.924C20.8903 37.3681 20.8616 37.3564 20.8381 37.3326C20.8145 37.309 20.8027 37.2803 20.8027 37.2464V30.3943C20.8027 30.3606 20.8145 30.3319 20.8381 30.3082C20.8616 30.2846 20.8903 30.2727 20.924 30.2727H22.3092C22.3765 30.2727 22.4237 30.2998 22.4508 30.3538L24.766 34.2157C24.7794 34.2359 24.7929 34.2445 24.8065 34.2411C24.8199 34.2377 24.8267 34.2225 24.8267 34.1954L24.8166 30.3943C24.8166 30.3606 24.8282 30.3319 24.8519 30.3082Z" fill="white"/>
<path d="M27.2864 35.113C27.2627 35.0894 27.251 35.0607 27.251 35.0268V33.8307C27.251 33.797 27.2627 33.7684 27.2864 33.7446C27.31 33.721 27.3385 33.7092 27.3724 33.7092H30.8099C30.8435 33.7092 30.8721 33.721 30.8958 33.7446C30.9193 33.7684 30.9311 33.797 30.9311 33.8307V35.0268C30.9311 35.0607 30.9193 35.0894 30.8958 35.113C30.8721 35.1367 30.8435 35.1484 30.8099 35.1484H27.3724C27.3385 35.1484 27.31 35.1367 27.2864 35.113Z" fill="white"/>
<path d="M36.7795 30.3082C36.8031 30.3319 36.815 30.3606 36.815 30.3943V31.6006C36.815 31.6344 36.8031 31.6631 36.7795 31.6867C36.7558 31.7104 36.7273 31.7222 36.6936 31.7222H34.9243C34.8905 31.7222 34.8738 31.7391 34.8738 31.7729V37.2464C34.8738 37.2803 34.8619 37.309 34.8384 37.3326C34.8147 37.3564 34.7861 37.3681 34.7524 37.3681H33.3168C33.2829 37.3681 33.2543 37.3564 33.2308 37.3326C33.2071 37.309 33.1954 37.2803 33.1954 37.2464V31.7729C33.1954 31.7391 33.1785 31.7222 33.1448 31.7222H31.4362C31.4024 31.7222 31.3738 31.7104 31.3503 31.6867C31.3266 31.6631 31.3149 31.6344 31.3149 31.6006V30.3943C31.3149 30.3606 31.3266 30.3319 31.3503 30.3082C31.3738 30.2846 31.4024 30.2727 31.4362 30.2727H36.6936C36.7273 30.2727 36.7558 30.2846 36.7795 30.3082Z" fill="white"/>
<path d="M37.5798 37.3326C37.5561 37.309 37.5444 37.2803 37.5444 37.2464V30.3944C37.5444 30.3606 37.5561 30.3319 37.5798 30.3082C37.6033 30.2846 37.6319 30.2727 37.6657 30.2727H39.1014C39.135 30.2727 39.1636 30.2846 39.1873 30.3082C39.2109 30.3319 39.2226 30.3606 39.2226 30.3944V37.2464C39.2226 37.2803 39.2109 37.309 39.1873 37.3326C39.1636 37.3564 39.135 37.3681 39.1014 37.3681H37.6657C37.6319 37.3681 37.6033 37.3564 37.5798 37.3326Z" fill="white"/>
<path d="M44.9046 30.2727H46.3302C46.3638 30.2727 46.3925 30.2846 46.4162 30.3082C46.4396 30.3319 46.4515 30.3606 46.4515 30.3943V37.2464C46.4515 37.2803 46.4396 37.309 46.4162 37.3326C46.3925 37.3564 46.3638 37.3681 46.3302 37.3681H44.8945C44.8607 37.3681 44.8321 37.3564 44.8086 37.3326C44.7849 37.309 44.7732 37.2803 44.7732 37.2464V33.1717C44.7732 33.1447 44.7664 33.1311 44.753 33.1311C44.7393 33.1311 44.726 33.1413 44.7125 33.1615L43.8431 34.5603C43.816 34.6145 43.7688 34.6414 43.7015 34.6414H42.9837C42.9162 34.6414 42.869 34.6145 42.8422 34.5603L41.9626 33.1513C41.949 33.1311 41.9356 33.1209 41.9221 33.1209C41.9085 33.1209 41.9019 33.1346 41.9019 33.1615V37.2464C41.9019 37.2803 41.89 37.309 41.8665 37.3326C41.8428 37.3564 41.8142 37.3681 41.7806 37.3681H40.3449C40.3111 37.3681 40.2825 37.3564 40.259 37.3326C40.2353 37.309 40.2236 37.2803 40.2236 37.2464V30.3943C40.2236 30.3606 40.2353 30.3319 40.259 30.3082C40.2825 30.2846 40.3111 30.2727 40.3449 30.2727H41.7704C41.8311 30.2727 41.8782 30.2998 41.912 30.3538L43.3173 32.5635C43.3375 32.604 43.3578 32.604 43.378 32.5635L44.763 30.3538C44.79 30.2998 44.8372 30.2727 44.9046 30.2727Z" fill="white"/>
<path d="M52.4328 31.6768C52.4091 31.7006 52.3806 31.7122 52.3469 31.7122H49.1723C49.1385 31.7122 49.1217 31.7291 49.1217 31.7628V33.0097C49.1217 33.0436 49.1385 33.0603 49.1723 33.0603H51.2044C51.2381 33.0603 51.2666 33.0722 51.2903 33.0958C51.3139 33.1195 51.3258 33.1482 51.3258 33.1819V34.368C51.3258 34.4019 51.3139 34.4304 51.2903 34.454C51.2666 34.4778 51.2381 34.4895 51.2044 34.4895H49.1723C49.1385 34.4895 49.1217 34.5065 49.1217 34.5402V35.8783C49.1217 35.9121 49.1385 35.929 49.1723 35.929H52.3469C52.3806 35.929 52.4091 35.9407 52.4328 35.9643C52.4564 35.9881 52.4682 36.0167 52.4682 36.0504V37.2465C52.4682 37.2805 52.4564 37.3091 52.4328 37.3327C52.4091 37.3565 52.3806 37.3682 52.3469 37.3682H47.5647C47.5309 37.3682 47.5023 37.3565 47.4788 37.3327C47.4551 37.3091 47.4434 37.2805 47.4434 37.2465V30.3946C47.4434 30.3608 47.4551 30.3321 47.4788 30.3083C47.5023 30.2847 47.5309 30.2729 47.5647 30.2729H52.3469C52.3806 30.2729 52.4091 30.2847 52.4328 30.3083C52.4564 30.3321 52.4682 30.3608 52.4682 30.3946V31.5905C52.4682 31.6244 52.4564 31.6532 52.4328 31.6768Z" fill="white"/>
<path d="M19.0539 39.619C19.1788 39.4904 19.2413 39.3221 19.2413 39.1139C19.2413 38.9025 19.1788 38.7325 19.0539 38.6039C18.9289 38.4755 18.7643 38.4113 18.5599 38.4113H17.5572C17.5442 38.4113 17.5378 38.4178 17.5378 38.4307V39.7922C17.5378 39.8053 17.5442 39.8117 17.5572 39.8117H18.5599C18.7643 39.8117 18.9289 39.7475 19.0539 39.619ZM19.2461 38.4332C19.4148 38.6039 19.4992 38.8293 19.4992 39.109C19.4992 39.3855 19.4141 39.6084 19.2437 39.7776C19.0734 39.9467 18.8486 40.0312 18.5696 40.0312H17.5572C17.5442 40.0312 17.5378 40.0378 17.5378 40.0508V41.5537C17.5378 41.5862 17.5214 41.6025 17.4891 41.6025H17.3285C17.296 41.6025 17.2798 41.5862 17.2798 41.5537V38.2258C17.2798 38.1933 17.296 38.177 17.3285 38.177H18.5793C18.8551 38.177 19.0774 38.2624 19.2461 38.4332Z" fill="white"/>
<path d="M22.3081 38.4162H20.4634C20.4504 38.4162 20.444 38.4228 20.444 38.4358V39.7533C20.444 39.7663 20.4504 39.7728 20.4634 39.7728H21.7727C21.8051 39.7728 21.8214 39.7891 21.8214 39.8216V39.9533C21.8214 39.9859 21.8051 40.0022 21.7727 40.0022H20.4634C20.4504 40.0022 20.444 40.0087 20.444 40.0216V41.3538C20.444 41.3668 20.4504 41.3733 20.4634 41.3733H22.3081C22.3405 41.3733 22.3568 41.3897 22.3568 41.4222V41.5539C22.3568 41.5864 22.3405 41.6026 22.3081 41.6026H20.2347C20.2022 41.6026 20.186 41.5864 20.186 41.5539V38.2357C20.186 38.2032 20.2022 38.187 20.2347 38.187H22.3081C22.3405 38.187 22.3568 38.2032 22.3568 38.2357V38.3674C22.3568 38.4 22.3405 38.4162 22.3081 38.4162Z" fill="white"/>
<path d="M23.4156 38.4357V39.7677C23.4156 39.7808 23.4221 39.7873 23.4351 39.7873H24.4085C24.6097 39.7873 24.7727 39.7239 24.8977 39.597C25.0226 39.4701 25.0851 39.3059 25.0851 39.1041C25.0851 38.8992 25.0226 38.7332 24.8977 38.6064C24.7727 38.4796 24.6097 38.4161 24.4085 38.4161H23.4351C23.4221 38.4161 23.4156 38.4227 23.4156 38.4357ZM25.1191 41.5684L24.3745 40.0167C24.3712 40.0069 24.3647 40.002 24.355 40.002H23.4351C23.4221 40.002 23.4156 40.0086 23.4156 40.0215V41.5537C23.4156 41.5862 23.3993 41.6025 23.367 41.6025H23.2063C23.1738 41.6025 23.1577 41.5862 23.1577 41.5537V38.2356C23.1577 38.2031 23.1738 38.1868 23.2063 38.1868H24.4329C24.7054 38.1868 24.9252 38.2714 25.0924 38.4405C25.2594 38.6097 25.343 38.8309 25.343 39.1041C25.343 39.3352 25.2798 39.5295 25.1532 39.6872C25.0267 39.8452 24.8563 39.9435 24.6422 39.9825C24.6259 39.989 24.621 39.9971 24.6276 40.0069L25.3722 41.5439C25.3754 41.5505 25.3771 41.5586 25.3771 41.5684C25.3771 41.5912 25.3641 41.6025 25.3382 41.6025H25.1775C25.1483 41.6025 25.1289 41.5912 25.1191 41.5684Z" fill="white"/>
<path d="M28.2555 38.4162H26.4157C26.4026 38.4162 26.3962 38.4228 26.3962 38.4358V39.7533C26.3962 39.7663 26.4026 39.7728 26.4157 39.7728H27.7201C27.7525 39.7728 27.7687 39.7891 27.7687 39.8216V39.9533C27.7687 39.9859 27.7525 40.0022 27.7201 40.0022H26.4157C26.4026 40.0022 26.3962 40.0087 26.3962 40.0216V41.5539C26.3962 41.5864 26.3799 41.6026 26.3475 41.6026H26.1869C26.1544 41.6026 26.1382 41.5864 26.1382 41.5539V38.2357C26.1382 38.2032 26.1544 38.187 26.1869 38.187H28.2555C28.2879 38.187 28.3041 38.2032 28.3041 38.2357V38.3674C28.3041 38.4 28.2879 38.4162 28.2555 38.4162Z" fill="white"/>
<path d="M30.5403 41.1774C30.7009 41.0181 30.7812 40.8066 30.7812 40.5431V39.25C30.7812 38.9898 30.7009 38.7791 30.5403 38.6181C30.3797 38.4571 30.168 38.3765 29.9051 38.3765C29.6455 38.3765 29.4362 38.4571 29.2773 38.6181C29.1182 38.7791 29.0388 38.9898 29.0388 39.25V40.5431C29.0388 40.8066 29.1182 41.0181 29.2773 41.1774C29.4362 41.3369 29.6455 41.4166 29.9051 41.4166C30.168 41.4166 30.3797 41.3369 30.5403 41.1774ZM29.3138 41.5019C29.1434 41.4092 29.012 41.2791 28.9195 41.1116C28.827 40.9441 28.7808 40.7513 28.7808 40.5333V39.2549C28.7808 39.037 28.827 38.8442 28.9195 38.6766C29.012 38.5091 29.1434 38.379 29.3138 38.2863C29.4841 38.1936 29.6812 38.1472 29.9051 38.1472C30.129 38.1472 30.3269 38.1936 30.4989 38.2863C30.6708 38.379 30.8039 38.5091 30.898 38.6766C30.9921 38.8442 31.0392 39.037 31.0392 39.2549V40.5333C31.0392 40.7513 30.9921 40.9441 30.898 41.1116C30.8039 41.2791 30.6708 41.4092 30.4989 41.5019C30.3269 41.5947 30.129 41.641 29.9051 41.641C29.6812 41.641 29.4841 41.5947 29.3138 41.5019Z" fill="white"/>
<path d="M32.1764 38.4357V39.7677C32.1764 39.7808 32.1829 39.7873 32.1959 39.7873H33.1694C33.3705 39.7873 33.5335 39.7239 33.6585 39.597C33.7834 39.4701 33.8459 39.3059 33.8459 39.1041C33.8459 38.8992 33.7834 38.7332 33.6585 38.6064C33.5335 38.4796 33.3705 38.4161 33.1694 38.4161H32.1959C32.1829 38.4161 32.1764 38.4227 32.1764 38.4357ZM33.88 41.5684L33.1353 40.0167C33.132 40.0069 33.1255 40.002 33.1158 40.002H32.1959C32.1829 40.002 32.1764 40.0086 32.1764 40.0215V41.5537C32.1764 41.5862 32.1601 41.6025 32.1278 41.6025H31.9672C31.9347 41.6025 31.9185 41.5862 31.9185 41.5537V38.2356C31.9185 38.2031 31.9347 38.1868 31.9672 38.1868H33.1937C33.4662 38.1868 33.6861 38.2714 33.8532 38.4405C34.0202 38.6097 34.1038 38.8309 34.1038 39.1041C34.1038 39.3352 34.0406 39.5295 33.914 39.6872C33.7875 39.8452 33.6171 39.9435 33.403 39.9825C33.3867 39.989 33.3819 39.9971 33.3884 40.0069L34.1331 41.5439C34.1362 41.5505 34.1379 41.5586 34.1379 41.5684C34.1379 41.5912 34.1249 41.6025 34.099 41.6025H33.9384C33.9092 41.6025 33.8897 41.5912 33.88 41.5684Z" fill="white"/>
<path d="M37.1695 38.1868H37.335C37.3674 38.1868 37.3837 38.2031 37.3837 38.2356V41.5537C37.3837 41.5862 37.3674 41.6025 37.335 41.6025H37.1743C37.1419 41.6025 37.1257 41.5862 37.1257 41.5537V38.6894C37.1257 38.6796 37.1224 38.674 37.116 38.6723C37.1094 38.6707 37.1046 38.6748 37.1014 38.6845L36.2447 40.0118C36.2285 40.0345 36.209 40.0459 36.1863 40.0459H36.1035C36.0808 40.0459 36.0614 40.0345 36.0452 40.0118L35.1788 38.6894C35.1756 38.6796 35.1707 38.6764 35.1642 38.6796C35.1577 38.6829 35.1545 38.6894 35.1545 38.6992V41.5537C35.1545 41.5862 35.1382 41.6025 35.1058 41.6025H34.9452C34.9127 41.6025 34.8965 41.5862 34.8965 41.5537V38.2356C34.8965 38.2031 34.9127 38.1868 34.9452 38.1868H35.1156C35.1382 38.1868 35.1577 38.1982 35.174 38.221L36.1279 39.6848C36.1311 39.6881 36.136 39.6897 36.1425 39.6897C36.149 39.6897 36.1539 39.6881 36.1571 39.6848L37.1111 38.221C37.1273 38.1982 37.1468 38.1868 37.1695 38.1868Z" fill="white"/>
<path d="M38.6244 40.6778C38.6293 40.6827 38.6349 40.6852 38.6415 40.6852H40.0043C40.0107 40.6852 40.0165 40.6827 40.0214 40.6778C40.0262 40.673 40.027 40.6674 40.0238 40.6608L39.3375 38.5381C39.3343 38.5317 39.3294 38.5284 39.3229 38.5284C39.3164 38.5284 39.3115 38.5317 39.3084 38.5381L38.622 40.6608C38.6188 40.6674 38.6197 40.673 38.6244 40.6778ZM40.3109 41.5635L40.1017 40.9145C40.0984 40.9048 40.0919 40.8999 40.0822 40.8999H38.5636C38.5539 40.8999 38.5474 40.9048 38.5441 40.9145L38.3397 41.5635C38.3301 41.5896 38.3105 41.6025 38.2813 41.6025H38.111C38.0752 41.6025 38.0623 41.5847 38.072 41.5489L39.1525 38.2258C39.1623 38.1999 39.1817 38.1868 39.2109 38.1868H39.43C39.4592 38.1868 39.4787 38.1999 39.4884 38.2258L40.5737 41.5489L40.5786 41.5684C40.5786 41.5912 40.5641 41.6025 40.5348 41.6025H40.3693C40.3402 41.6025 40.3207 41.5896 40.3109 41.5635Z" fill="white"/>
<path d="M43.3575 38.1868H43.5181C43.5505 38.1868 43.5668 38.2031 43.5668 38.2356V41.5537C43.5668 41.5862 43.5505 41.6025 43.5181 41.6025H43.3575C43.3348 41.6025 43.3153 41.5911 43.2991 41.5684L41.5372 38.704C41.5339 38.6942 41.5291 38.6903 41.5226 38.6918C41.516 38.6935 41.5129 38.6992 41.5129 38.7088V41.5537C41.5129 41.5862 41.4966 41.6025 41.4642 41.6025H41.3036C41.2711 41.6025 41.2549 41.5862 41.2549 41.5537V38.2356C41.2549 38.2031 41.2711 38.1868 41.3036 38.1868H41.469C41.4917 38.1868 41.5112 38.1982 41.5275 38.221L43.2845 41.0853C43.2877 41.095 43.2926 41.0991 43.2991 41.0975C43.3055 41.0958 43.3088 41.0902 43.3088 41.0803V38.2356C43.3088 38.2031 43.3251 38.1868 43.3575 38.1868Z" fill="white"/>
<path d="M44.9787 41.5141C44.81 41.4262 44.6793 41.3019 44.5868 41.1409C44.4944 40.9798 44.4482 40.7952 44.4482 40.587V39.1963C44.4482 38.9881 44.4944 38.8052 44.5868 38.6474C44.6793 38.4896 44.81 38.3668 44.9787 38.279C45.1474 38.191 45.342 38.1472 45.5628 38.1472C45.7801 38.1472 45.9733 38.1903 46.142 38.2765C46.3106 38.3627 46.4413 38.4838 46.5338 38.64C46.6263 38.7962 46.6725 38.9767 46.6725 39.1817V39.1865C46.6725 39.2029 46.6676 39.2158 46.6579 39.2255C46.6482 39.2353 46.6367 39.2402 46.6238 39.2402L46.4632 39.2499C46.4307 39.2499 46.4145 39.2338 46.4145 39.2012V39.1865C46.4145 38.9426 46.3367 38.7466 46.1809 38.5986C46.0252 38.4506 45.819 38.3765 45.5628 38.3765C45.3031 38.3765 45.0955 38.4506 44.9398 38.5986C44.784 38.7466 44.7061 38.9426 44.7061 39.1865V40.6016C44.7061 40.8456 44.7847 41.0425 44.9422 41.1921C45.0995 41.3418 45.3064 41.4166 45.5628 41.4166C45.819 41.4166 46.0252 41.3418 46.1809 41.1921C46.3367 41.0425 46.4145 40.8456 46.4145 40.6016V40.5918C46.4145 40.5625 46.4307 40.5479 46.4632 40.5479L46.6238 40.5577C46.6562 40.5577 46.6725 40.5724 46.6725 40.6016C46.6725 40.8066 46.6263 40.9879 46.5338 41.1457C46.4413 41.3035 46.3106 41.4262 46.142 41.5141C45.9733 41.602 45.7801 41.6459 45.5628 41.6459C45.342 41.6459 45.1474 41.602 44.9787 41.5141Z" fill="white"/>
<path d="M49.6363 38.4162H47.7917C47.7786 38.4162 47.7722 38.4228 47.7722 38.4358V39.7533C47.7722 39.7663 47.7786 39.7728 47.7917 39.7728H49.1009C49.1333 39.7728 49.1496 39.7891 49.1496 39.8216V39.9533C49.1496 39.9859 49.1333 40.0022 49.1009 40.0022H47.7917C47.7786 40.0022 47.7722 40.0087 47.7722 40.0216V41.3538C47.7722 41.3668 47.7786 41.3733 47.7917 41.3733H49.6363C49.6687 41.3733 49.685 41.3897 49.685 41.4222V41.5539C49.685 41.5864 49.6687 41.6026 49.6363 41.6026H47.5629C47.5304 41.6026 47.5142 41.5864 47.5142 41.5539V38.2357C47.5142 38.2032 47.5304 38.187 47.5629 38.187H49.6363C49.6687 38.187 49.685 38.2032 49.685 38.2357V38.3674C49.685 38.4 49.6687 38.4162 49.6363 38.4162Z" fill="white"/>
<path d="M13.0987 46.2772C12.8764 46.1593 12.7037 45.9936 12.5806 45.7798C12.4575 45.5663 12.396 45.3194 12.396 45.0395V43.9068C12.396 43.6268 12.4575 43.381 12.5806 43.1691C12.7037 42.9573 12.8764 42.7925 13.0987 42.6746C13.3209 42.5567 13.579 42.4978 13.873 42.4978C14.1632 42.4978 14.4205 42.554 14.6446 42.6663C14.8687 42.7787 15.0423 42.9325 15.1655 43.1276C15.2885 43.3229 15.3501 43.5384 15.3501 43.7742V43.8018C15.3501 43.8202 15.3436 43.8359 15.3308 43.8487C15.3178 43.8617 15.3023 43.8681 15.2839 43.8681H14.5013C14.4829 43.8681 14.4673 43.8617 14.4545 43.8487C14.4415 43.8359 14.4352 43.8202 14.4352 43.8018C14.4352 43.6581 14.3846 43.5357 14.2836 43.4343C14.1826 43.333 14.0457 43.2824 13.873 43.2824C13.704 43.2824 13.568 43.3376 13.4652 43.4481C13.3623 43.5586 13.3109 43.7022 13.3109 43.8791V45.0671C13.3109 45.2439 13.3678 45.3876 13.4818 45.4981C13.5956 45.6086 13.7389 45.6639 13.9116 45.6639C14.0733 45.6639 14.2037 45.6206 14.3029 45.534C14.4021 45.4474 14.4517 45.3268 14.4517 45.1721V45.0173C14.4517 44.999 14.4425 44.9898 14.4242 44.9898H13.873C13.8546 44.9898 13.839 44.9834 13.8262 44.9704C13.8132 44.9575 13.8069 44.942 13.8069 44.9234V44.3156C13.8069 44.2972 13.8132 44.2816 13.8262 44.2686C13.839 44.2558 13.8546 44.2493 13.873 44.2493H15.2839C15.3023 44.2493 15.3178 44.2558 15.3308 44.2686C15.3436 44.2816 15.3501 44.2972 15.3501 44.3156V45.0671C15.3501 45.3433 15.2885 45.5865 15.1655 45.7965C15.0423 46.0064 14.8696 46.1685 14.6474 46.2826C14.425 46.3969 14.167 46.454 13.873 46.454C13.579 46.454 13.3209 46.3952 13.0987 46.2772Z" fill="white"/>
<path d="M15.8484 46.3905C15.8355 46.3776 15.8291 46.362 15.8291 46.3436V42.6084C15.8291 42.59 15.8355 42.5743 15.8484 42.5614C15.8612 42.5485 15.8769 42.542 15.8952 42.542H16.6779C16.6963 42.542 16.7119 42.5485 16.7247 42.5614C16.7376 42.5743 16.7441 42.59 16.7441 42.6084V45.5976C16.7441 45.6161 16.7532 45.6253 16.7716 45.6253H18.5297C18.5481 45.6253 18.5637 45.6318 18.5766 45.6446C18.5894 45.6575 18.5958 45.6732 18.5958 45.6916V46.3436C18.5958 46.362 18.5894 46.3776 18.5766 46.3905C18.5637 46.4035 18.5481 46.4099 18.5297 46.4099H15.8952C15.8769 46.4099 15.8612 46.4035 15.8484 46.3905Z" fill="white"/>
<path d="M20.7973 45.5154C20.9057 45.4012 20.9599 45.2483 20.9599 45.0567V43.913C20.9599 43.7251 20.9057 43.5732 20.7973 43.4571C20.6889 43.3411 20.5466 43.2831 20.3702 43.2831C20.1975 43.2831 20.057 43.3411 19.9486 43.4571C19.8401 43.5732 19.786 43.7251 19.786 43.913V45.0567C19.786 45.2483 19.8401 45.4012 19.9486 45.5154C20.057 45.6296 20.1975 45.6866 20.3702 45.6866C20.5466 45.6866 20.6889 45.6296 20.7973 45.5154ZM19.5848 46.2916C19.3589 46.172 19.1834 46.0035 19.0585 45.786C18.9336 45.5687 18.8711 45.3164 18.8711 45.0291V43.924C18.8711 43.6441 18.9336 43.3963 19.0585 43.1808C19.1834 42.9653 19.3589 42.7978 19.5848 42.678C19.8108 42.5584 20.0726 42.4985 20.3702 42.4985C20.6678 42.4985 20.9305 42.5584 21.1583 42.678C21.3861 42.7978 21.5625 42.9653 21.6875 43.1808C21.8123 43.3963 21.8748 43.6441 21.8748 43.924V45.0291C21.8748 45.3164 21.8123 45.5687 21.6875 45.786C21.5625 46.0035 21.3861 46.172 21.1583 46.2916C20.9305 46.4113 20.6678 46.4712 20.3702 46.4712C20.0726 46.4712 19.8108 46.4113 19.5848 46.2916Z" fill="white"/>
<path d="M24.2274 45.5175C24.3081 45.4494 24.3486 45.3509 24.3486 45.2219C24.3486 45.0967 24.3091 45 24.2301 44.9318C24.1511 44.8637 24.0362 44.8296 23.8857 44.8296H23.2959C23.2775 44.8296 23.2684 44.8388 23.2684 44.8573V45.5921C23.2684 45.6106 23.2775 45.6198 23.2959 45.6198H23.8857C24.0325 45.6198 24.1465 45.5857 24.2274 45.5175ZM23.2684 43.3543V44.0505C23.2684 44.069 23.2775 44.0781 23.2959 44.0781H23.8416C23.9922 44.0781 24.1079 44.0459 24.1888 43.9814C24.2695 43.917 24.31 43.8259 24.31 43.7079C24.31 43.5864 24.2695 43.4924 24.1888 43.4261C24.1079 43.3599 23.9922 43.3267 23.8416 43.3267H23.2959C23.2775 43.3267 23.2684 43.336 23.2684 43.3543ZM24.762 44.4317C25.0963 44.6086 25.2635 44.9033 25.2635 45.3158C25.2635 45.6842 25.1367 45.9587 24.8832 46.1391C24.6297 46.3197 24.2971 46.4099 23.8857 46.4099H22.4196C22.4012 46.4099 22.3856 46.4035 22.3727 46.3905C22.3599 46.3776 22.3535 46.362 22.3535 46.3436V42.6084C22.3535 42.59 22.3599 42.5743 22.3727 42.5614C22.3856 42.5485 22.4012 42.542 22.4196 42.542H23.8416C24.2898 42.542 24.6287 42.6268 24.8584 42.7962C25.088 42.9657 25.2029 43.2402 25.2029 43.6196C25.2029 43.9806 25.0558 44.2403 24.762 44.3986C24.7399 44.4097 24.7399 44.4207 24.762 44.4317Z" fill="white"/>
<path d="M26.7476 45.1334H27.5688C27.5908 45.1334 27.5981 45.1224 27.5908 45.1003L27.1719 43.6802C27.1682 43.6656 27.1627 43.6591 27.1554 43.6609C27.148 43.6628 27.1425 43.6692 27.1389 43.6802L26.7255 45.1003C26.7219 45.1224 26.7292 45.1334 26.7476 45.1334ZM27.9601 46.3546L27.8168 45.8628C27.8093 45.8482 27.8002 45.8407 27.7892 45.8407H26.5326C26.5216 45.8407 26.5124 45.8482 26.5051 45.8628L26.3618 46.3546C26.3507 46.3914 26.325 46.4098 26.2846 46.4098H25.4414C25.4193 46.4098 25.4028 46.4034 25.3918 46.3905C25.3807 46.3776 25.3788 46.3582 25.3863 46.3325L26.5657 42.5972C26.5767 42.5605 26.6005 42.542 26.6373 42.542H27.679C27.7157 42.542 27.7396 42.5605 27.7506 42.5972L28.9356 46.3325C28.9392 46.3398 28.9411 46.349 28.9411 46.3601C28.9411 46.3932 28.9208 46.4098 28.8805 46.4098H28.0372C27.9968 46.4098 27.9711 46.3914 27.9601 46.3546Z" fill="white"/>
<path d="M29.3636 46.3905C29.3506 46.3776 29.3442 46.362 29.3442 46.3436V42.6084C29.3442 42.59 29.3506 42.5743 29.3636 42.5614C29.3764 42.5485 29.392 42.542 29.4104 42.542H30.193C30.2114 42.542 30.227 42.5485 30.2399 42.5614C30.2527 42.5743 30.2592 42.59 30.2592 42.6084V45.5976C30.2592 45.6161 30.2683 45.6253 30.2867 45.6253H32.0448C32.0632 45.6253 32.0788 45.6318 32.0917 45.6446C32.1045 45.6575 32.1109 45.6732 32.1109 45.6916V46.3436C32.1109 46.362 32.1045 46.3776 32.0917 46.3905C32.0788 46.4035 32.0632 46.4099 32.0448 46.4099H29.4104C29.392 46.4099 29.3764 46.4035 29.3636 46.3905Z" fill="white"/>
<path d="M34.4832 46.3547L33.4581 42.6138L33.4526 42.5917C33.4526 42.5587 33.4727 42.542 33.5132 42.542H34.3509C34.3876 42.542 34.4116 42.5605 34.4226 42.5973L34.9021 44.6086C34.9057 44.6233 34.9112 44.6307 34.9186 44.6307C34.926 44.6307 34.9315 44.6233 34.9351 44.6086L35.365 42.6029C35.3723 42.5623 35.3962 42.542 35.4367 42.542H36.2028C36.2394 42.542 36.2634 42.5605 36.2744 42.5973L36.7539 44.6086C36.7575 44.6233 36.7631 44.6307 36.7704 44.6307C36.7778 44.6307 36.7832 44.6233 36.787 44.6086L37.2334 42.6029C37.2407 42.5623 37.2645 42.542 37.305 42.542H38.1207C38.1721 42.542 38.1924 42.5661 38.1813 42.6138L37.2499 46.3547C37.2389 46.3915 37.2132 46.4099 37.1728 46.4099H36.3846C36.3442 46.4099 36.3203 46.3897 36.313 46.3491L35.8335 44.2162C35.8298 44.2016 35.8243 44.1942 35.817 44.1942C35.8095 44.1942 35.804 44.2016 35.8004 44.2162L35.3705 46.3491C35.3632 46.3897 35.3393 46.4099 35.2989 46.4099H34.5604C34.5199 46.4099 34.4942 46.3915 34.4832 46.3547Z" fill="white"/>
<path d="M38.5916 46.3905C38.5787 46.3776 38.5723 46.362 38.5723 46.3436V42.6084C38.5723 42.59 38.5787 42.5743 38.5916 42.5614C38.6045 42.5485 38.62 42.542 38.6385 42.542H39.4211C39.4395 42.542 39.4551 42.5485 39.4679 42.5614C39.4808 42.5743 39.4872 42.59 39.4872 42.6084V46.3436C39.4872 46.362 39.4808 46.3776 39.4679 46.3905C39.4551 46.4035 39.4395 46.4099 39.4211 46.4099H38.6385C38.62 46.4099 38.6045 46.4035 38.5916 46.3905Z" fill="white"/>
<path d="M42.241 42.5614C42.2538 42.5485 42.2694 42.542 42.2878 42.542H43.0705C43.0888 42.542 43.1044 42.5485 43.1173 42.5614C43.1302 42.5744 43.1366 42.59 43.1366 42.6084V46.3436C43.1366 46.362 43.1302 46.3777 43.1173 46.3905C43.1044 46.4035 43.0888 46.4099 43.0705 46.4099H42.3208C42.2841 46.4099 42.2584 46.3953 42.2438 46.3657L40.9761 44.255C40.9688 44.2439 40.9614 44.2393 40.9541 44.2411C40.9467 44.2431 40.943 44.2514 40.943 44.266L40.9485 46.3436C40.9485 46.362 40.9421 46.3777 40.9293 46.3905C40.9164 46.4035 40.9008 46.4099 40.8824 46.4099H40.0998C40.0814 46.4099 40.0658 46.4035 40.053 46.3905C40.0401 46.3777 40.0337 46.362 40.0337 46.3436V42.6084C40.0337 42.59 40.0401 42.5744 40.053 42.5614C40.0658 42.5485 40.0814 42.542 40.0998 42.542H40.8549C40.8915 42.542 40.9173 42.5569 40.9321 42.5863L42.1942 44.6915C42.2015 44.7025 42.2088 44.7071 42.2161 44.7053C42.2235 44.7035 42.2272 44.6952 42.2272 44.6804L42.2216 42.6084C42.2216 42.59 42.228 42.5744 42.241 42.5614Z" fill="white"/>
<path d="M45.8738 42.5614C45.8867 42.5485 45.9022 42.542 45.9206 42.542H46.7033C46.7216 42.542 46.7372 42.5485 46.7501 42.5614C46.763 42.5744 46.7694 42.59 46.7694 42.6084V46.3436C46.7694 46.362 46.763 46.3777 46.7501 46.3905C46.7372 46.4035 46.7216 46.4099 46.7033 46.4099H45.9537C45.9169 46.4099 45.8912 46.3953 45.8766 46.3657L44.609 44.255C44.6016 44.2439 44.5942 44.2393 44.5869 44.2411C44.5795 44.2431 44.5758 44.2514 44.5758 44.266L44.5813 46.3436C44.5813 46.362 44.575 46.3777 44.5621 46.3905C44.5492 46.4035 44.5336 46.4099 44.5153 46.4099H43.7327C43.7142 46.4099 43.6986 46.4035 43.6858 46.3905C43.6729 46.3777 43.6665 46.362 43.6665 46.3436V42.6084C43.6665 42.59 43.6729 42.5744 43.6858 42.5614C43.6986 42.5485 43.7142 42.542 43.7327 42.542H44.4877C44.5244 42.542 44.5501 42.5569 44.5649 42.5863L45.827 44.6915C45.8343 44.7025 45.8416 44.7071 45.8489 44.7053C45.8563 44.7035 45.86 44.6952 45.86 44.6804L45.8545 42.6084C45.8545 42.59 45.8608 42.5744 45.8738 42.5614Z" fill="white"/>
<path d="M50.0181 43.3073C50.0052 43.3203 49.9896 43.3267 49.9713 43.3267H48.2407C48.2223 43.3267 48.2131 43.3359 48.2131 43.3542V44.0339C48.2131 44.0524 48.2223 44.0616 48.2407 44.0616H49.3485C49.3668 44.0616 49.3824 44.068 49.3953 44.0809C49.4082 44.0938 49.4146 44.1094 49.4146 44.1279V44.7743C49.4146 44.7928 49.4082 44.8084 49.3953 44.8213C49.3824 44.8342 49.3668 44.8406 49.3485 44.8406H48.2407C48.2223 44.8406 48.2131 44.8498 48.2131 44.8682V45.5976C48.2131 45.6161 48.2223 45.6253 48.2407 45.6253H49.9713C49.9896 45.6253 50.0052 45.6317 50.0181 45.6446C50.031 45.6575 50.0374 45.6731 50.0374 45.6916V46.3436C50.0374 46.3619 50.031 46.3776 50.0181 46.3905C50.0052 46.4034 49.9896 46.4098 49.9713 46.4098H47.3644C47.346 46.4098 47.3304 46.4034 47.3176 46.3905C47.3047 46.3776 47.2983 46.3619 47.2983 46.3436V42.6084C47.2983 42.5899 47.3047 42.5743 47.3176 42.5613C47.3304 42.5485 47.346 42.542 47.3644 42.542H49.9713C49.9896 42.542 50.0052 42.5485 50.0181 42.5613C50.031 42.5743 50.0374 42.5899 50.0374 42.6084V43.2604C50.0374 43.2788 50.031 43.2944 50.0181 43.3073Z" fill="white"/>
<path d="M51.3943 43.3542V44.1388C51.3943 44.1573 51.4034 44.1665 51.4219 44.1665H52.0337C52.1695 44.1665 52.2797 44.1287 52.3643 44.0532C52.4487 43.9777 52.491 43.8774 52.491 43.7521C52.491 43.6232 52.4487 43.52 52.3643 43.4426C52.2797 43.3653 52.1695 43.3266 52.0337 43.3266H51.4219C51.4034 43.3266 51.3943 43.3359 51.3943 43.3542ZM52.4691 46.3601L51.8187 44.8903C51.8113 44.8756 51.8002 44.8682 51.7856 44.8682H51.4219C51.4034 44.8682 51.3943 44.8775 51.3943 44.8958V46.3435C51.3943 46.3619 51.3878 46.3776 51.3749 46.3905C51.3621 46.4034 51.3465 46.4098 51.3281 46.4098H50.5456C50.5271 46.4098 50.5115 46.4034 50.4987 46.3905C50.4858 46.3776 50.4795 46.3619 50.4795 46.3435V42.6083C50.4795 42.5899 50.4858 42.5743 50.4987 42.5613C50.5115 42.5484 50.5271 42.542 50.5456 42.542H52.1825C52.4249 42.542 52.638 42.5917 52.8217 42.6912C53.0054 42.7906 53.1477 42.9315 53.2489 43.1138C53.3499 43.2962 53.4004 43.5053 53.4004 43.741C53.4004 43.9879 53.3398 44.2016 53.2185 44.382C53.0973 44.5625 52.9283 44.6933 52.7115 44.7743C52.6931 44.7817 52.6875 44.7946 52.6949 44.813L53.4224 46.3325C53.4297 46.3472 53.4335 46.3582 53.4335 46.3656C53.4335 46.3952 53.4133 46.4098 53.3729 46.4098H52.5462C52.5093 46.4098 52.4837 46.3932 52.4691 46.3601Z" fill="white"/>
<path d="M20.1602 26.6381V26.6257C20.1602 25.3901 21.0813 24.3667 22.3635 24.3667C23.1261 24.3667 23.5931 24.628 24.0164 25.0163C24.0419 25.0397 24.0434 25.0801 24.0197 25.1057L23.7688 25.3759C23.7454 25.4011 23.7064 25.4021 23.6812 25.3788C23.3253 25.0518 22.9243 24.8222 22.3573 24.8222C21.3925 24.8222 20.6706 25.6086 20.6706 26.6132V26.6257C20.6706 27.6364 21.3988 28.4288 22.3573 28.4288C22.9338 28.4288 23.3191 28.2139 23.7202 27.8401C23.7446 27.8173 23.7827 27.8171 23.8064 27.8405L24.0421 28.0723C24.067 28.0968 24.0673 28.1377 24.0423 28.1623C23.5999 28.5986 23.1091 28.8844 22.3449 28.8844C21.0875 28.8844 20.1602 27.8924 20.1602 26.6381Z" fill="white"/>
<path d="M25.9846 24.4414H26.353C26.387 24.4414 26.4146 24.4691 26.4146 24.5032V28.7475C26.4146 28.7817 26.387 28.8094 26.353 28.8094H25.9846C25.9506 28.8094 25.9229 28.7817 25.9229 28.7475V24.5032C25.9229 24.4691 25.9506 24.4414 25.9846 24.4414Z" fill="white"/>
<path d="M30.8896 27.0248C31.5742 26.9001 32.0722 26.4756 32.0722 25.7518V25.7393C32.0722 25.3961 31.9475 25.0905 31.736 24.8783C31.4622 24.6037 31.0326 24.4414 30.4975 24.4414H28.6857C28.6516 24.4414 28.624 24.4691 28.624 24.5033V24.8352C28.624 24.8692 28.6516 24.8969 28.6857 24.8969H30.46C31.1634 24.8969 31.5742 25.2214 31.5742 25.7581V25.7705C31.5742 26.3323 31.1074 26.669 30.4538 26.669H28.68C28.6491 26.669 28.624 26.6942 28.624 26.7252V28.7475C28.624 28.7816 28.6516 28.8093 28.6857 28.8093H29.0541C29.0881 28.8093 29.1158 28.7816 29.1158 28.7475V27.1121H30.348H30.3606L31.5992 28.776C31.6148 28.797 31.6393 28.8093 31.6655 28.8093H32.1661C32.1914 28.8093 32.2059 28.7803 32.1906 28.76L30.8896 27.0248Z" fill="white"/>
<path d="M34.1627 24.4414H34.5311C34.5651 24.4414 34.5927 24.4691 34.5927 24.5032V28.7475C34.5927 28.7817 34.5651 28.8094 34.5311 28.8094H34.1627C34.1287 28.8094 34.1011 28.7817 34.1011 28.7475V24.5032C34.1011 24.4691 34.1287 24.4414 34.1627 24.4414Z" fill="white"/>
<path d="M36.7344 26.9811V24.5033C36.7344 24.4691 36.762 24.4414 36.7961 24.4414H37.1644C37.1985 24.4414 37.2261 24.4691 37.2261 24.5033V26.9499C37.2261 27.8922 37.724 28.4225 38.558 28.4225C39.3609 28.4225 39.8712 27.9358 39.8712 26.9811V24.5033C39.8712 24.4691 39.8988 24.4414 39.9329 24.4414H40.3012C40.3354 24.4414 40.363 24.4691 40.363 24.5033V26.9437C40.363 28.2166 39.6348 28.8779 38.5456 28.8779C37.4688 28.8779 36.7344 28.2166 36.7344 26.9811Z" fill="white"/>
<path d="M42.5197 24.4414H42.9125C42.9396 24.4414 42.965 24.455 42.9801 24.4777L44.5431 26.8251L46.1061 24.4777C46.1211 24.455 46.1465 24.4414 46.1736 24.4414H46.5664C46.6004 24.4414 46.628 24.4691 46.628 24.5033V28.7475C46.628 28.7818 46.6004 28.8095 46.5664 28.8095H46.1981C46.1641 28.8095 46.1364 28.7818 46.1364 28.7475V25.2714L44.5625 27.592C44.5504 27.6099 44.5241 27.6099 44.512 27.592L42.9372 25.2776V28.7475C42.9372 28.7818 42.9096 28.8095 42.8756 28.8095H42.5197C42.4856 28.8095 42.458 28.7818 42.458 28.7475V24.5033C42.458 24.4691 42.4856 24.4414 42.5197 24.4414Z" fill="white"/>
<g clip-path="url(#clip1_2432_686)">
<path d="M27.9999 50.51C27.9999 50.51 27.9999 50.46 28.0199 50.44L29.2799 48.68C29.3699 48.56 29.4399 48.45 29.4899 48.33C29.5399 48.21 29.5699 48.09 29.5699 47.97C29.5699 47.77 29.5099 47.61 29.3899 47.48C29.2699 47.35 29.1099 47.29 28.9199 47.29C28.7299 47.29 28.5799 47.35 28.4699 47.46C28.3599 47.57 28.2899 47.73 28.2599 47.92C28.2599 47.95 28.2299 47.97 28.1999 47.96L28.0399 47.92C28.0399 47.92 27.9899 47.89 27.9999 47.86C28.0099 47.75 28.0399 47.64 28.0899 47.54C28.1399 47.44 28.1999 47.35 28.2699 47.27C28.3499 47.19 28.4399 47.13 28.5499 47.08C28.6599 47.03 28.7799 47 28.9099 47C29.0399 47 29.1699 47.02 29.2899 47.07C29.3999 47.12 29.4999 47.18 29.5799 47.27C29.6599 47.36 29.7199 47.46 29.7699 47.57C29.8099 47.69 29.8399 47.82 29.8399 47.96C29.8399 48.12 29.8099 48.27 29.7499 48.41C29.6899 48.55 29.5999 48.7 29.4999 48.85L28.3599 50.42H29.7799C29.8099 50.42 29.8299 50.44 29.8299 50.47V50.64C29.8299 50.64 29.8099 50.69 29.7799 50.69H28.0499C28.0499 50.69 27.9999 50.67 27.9999 50.64V50.5V50.51Z" fill="white"/>
<path d="M30.7101 50.1C30.7101 50.1 30.6901 50.03 30.6801 49.98C30.6801 49.93 30.6601 49.86 30.6601 49.77C30.6601 49.68 30.6501 49.56 30.6401 49.42C30.6401 49.28 30.6401 49.1 30.6401 48.88C30.6401 48.66 30.6401 48.48 30.6401 48.34C30.6401 48.2 30.6401 48.08 30.6601 47.99C30.6601 47.9 30.6801 47.83 30.6801 47.78C30.6801 47.73 30.7001 47.69 30.7101 47.66C30.7801 47.45 30.8801 47.28 31.0401 47.17C31.1901 47.06 31.3701 47 31.5901 47C31.8101 47 31.9901 47.06 32.1401 47.17C32.2901 47.28 32.4001 47.44 32.4701 47.66C32.4701 47.69 32.4901 47.73 32.5001 47.78C32.5001 47.83 32.5201 47.9 32.5301 47.99C32.5301 48.08 32.5401 48.2 32.5501 48.34C32.5501 48.48 32.5501 48.66 32.5501 48.88C32.5501 49.1 32.5501 49.28 32.5501 49.42C32.5501 49.56 32.5501 49.68 32.5301 49.77C32.5301 49.86 32.5101 49.93 32.5001 49.98C32.4901 50.03 32.4801 50.07 32.4701 50.1C32.4001 50.31 32.2901 50.48 32.1401 50.59C31.9901 50.7 31.8101 50.76 31.5901 50.76C31.3701 50.76 31.1901 50.7 31.0401 50.59C30.8901 50.48 30.7801 50.32 30.7101 50.1ZM30.9801 50.03C31.0301 50.18 31.1001 50.3 31.2101 50.37C31.3201 50.44 31.4401 50.48 31.5901 50.48C31.7401 50.48 31.8701 50.44 31.9701 50.37C32.0701 50.3 32.1501 50.19 32.2001 50.03C32.2001 50 32.2201 49.96 32.2301 49.92C32.2301 49.87 32.2501 49.81 32.2501 49.72C32.2501 49.63 32.2601 49.53 32.2601 49.39C32.2601 49.25 32.2601 49.08 32.2601 48.87C32.2601 48.66 32.2601 48.49 32.2601 48.35C32.2601 48.21 32.2601 48.1 32.2501 48.02C32.2401 47.94 32.2401 47.87 32.2301 47.82C32.2301 47.77 32.2101 47.74 32.2001 47.71C32.1501 47.56 32.0801 47.44 31.9701 47.37C31.8601 47.3 31.7401 47.26 31.5901 47.26C31.4401 47.26 31.3101 47.3 31.2101 47.37C31.1101 47.44 31.0301 47.55 30.9801 47.71C30.9701 47.74 30.9601 47.78 30.9501 47.82C30.9501 47.87 30.9301 47.93 30.9301 48.02C30.9301 48.11 30.9201 48.21 30.9201 48.35C30.9201 48.49 30.9201 48.66 30.9201 48.87C30.9201 49.08 30.9201 49.25 30.9201 49.39C30.9201 49.53 30.9201 49.64 30.9301 49.72C30.9401 49.8 30.9401 49.87 30.9501 49.92C30.9501 49.97 30.9701 50 30.9801 50.03Z" fill="white"/>
<path d="M33.3399 50.51C33.3399 50.51 33.3399 50.46 33.3599 50.44L34.6199 48.68C34.7099 48.56 34.7699 48.45 34.8299 48.33C34.8899 48.21 34.8999 48.09 34.8999 47.97C34.8999 47.77 34.8399 47.61 34.7199 47.48C34.5999 47.35 34.4399 47.29 34.2499 47.29C34.0599 47.29 33.9099 47.35 33.7999 47.46C33.6899 47.57 33.6199 47.73 33.5899 47.92C33.5899 47.95 33.5599 47.97 33.5299 47.96L33.3699 47.92C33.3699 47.92 33.3199 47.89 33.3299 47.86C33.3399 47.75 33.3699 47.64 33.4199 47.54C33.4599 47.44 33.5299 47.35 33.5999 47.27C33.6799 47.19 33.7699 47.13 33.8799 47.08C33.9899 47.03 34.1099 47.01 34.2499 47.01C34.3899 47.01 34.5099 47.03 34.6299 47.08C34.7399 47.13 34.8399 47.19 34.9199 47.28C34.9999 47.37 35.0599 47.47 35.1099 47.58C35.1499 47.7 35.1699 47.83 35.1699 47.97C35.1699 48.13 35.1399 48.28 35.0799 48.42C35.0199 48.56 34.9299 48.71 34.8299 48.86L33.7099 50.42H35.1299C35.1599 50.42 35.1799 50.44 35.1799 50.47V50.64C35.1799 50.64 35.1599 50.69 35.1299 50.69H33.3999C33.3999 50.69 33.3499 50.67 33.3499 50.64V50.5L33.3399 50.51Z" fill="white"/>
<path d="M36.0398 49.9901C36.0398 49.9901 36.0398 49.9401 36.0798 49.9301L36.2398 49.8901C36.2398 49.8901 36.2898 49.8901 36.2998 49.9301C36.3298 50.0901 36.3898 50.2201 36.4998 50.3301C36.6098 50.4401 36.7598 50.4901 36.9498 50.4901C37.0898 50.4901 37.2098 50.4601 37.3198 50.3901C37.4298 50.3201 37.4998 50.2201 37.5498 50.0801C37.5798 49.9701 37.5998 49.7901 37.5998 49.5601C37.5998 49.4401 37.5998 49.3301 37.5898 49.2401C37.5798 49.1501 37.5598 49.0801 37.5498 49.0201C37.5098 48.8801 37.4398 48.7801 37.3398 48.7101C37.2398 48.6401 37.1198 48.6101 36.9698 48.6101C36.8098 48.6101 36.6798 48.6501 36.5698 48.7401C36.4698 48.8301 36.3998 48.9301 36.3598 49.0401C36.3598 49.0801 36.3298 49.0901 36.3098 49.0901H36.1398C36.1398 49.0901 36.0898 49.0701 36.0898 49.0401V47.1101C36.0898 47.1101 36.1098 47.0601 36.1398 47.0601H37.7498C37.7498 47.0601 37.7998 47.0801 37.7998 47.1101V47.2801C37.7998 47.2801 37.7798 47.3301 37.7498 47.3301H36.3798C36.3798 47.3301 36.3498 47.3401 36.3498 47.3601V48.6201C36.3898 48.5401 36.4698 48.4701 36.5798 48.4001C36.6898 48.3301 36.8198 48.3001 36.9798 48.3001C37.1798 48.3001 37.3498 48.3501 37.4898 48.4401C37.6298 48.5401 37.7298 48.6801 37.7798 48.8701C37.7998 48.9501 37.8198 49.0301 37.8398 49.1401C37.8598 49.2401 37.8598 49.3701 37.8598 49.5201C37.8598 49.6601 37.8598 49.7701 37.8398 49.8701C37.8298 49.9701 37.8098 50.0601 37.7898 50.1301C37.7298 50.3301 37.6198 50.4801 37.4798 50.5801C37.3298 50.6901 37.1498 50.7401 36.9498 50.7401C36.8198 50.7401 36.6998 50.7201 36.5898 50.6801C36.4798 50.6401 36.3898 50.5901 36.3098 50.5201C36.2298 50.4501 36.1698 50.3701 36.1198 50.2801C36.0698 50.1901 36.0398 50.0801 36.0298 49.9701L36.0398 49.9901Z" fill="white"/>
</g>
</g>
<defs>
<clipPath id="clip0_2432_686">
<rect width="67" height="66" fill="white"/>
</clipPath>
<clipPath id="clip1_2432_686">
<rect width="9.88" height="3.76" fill="white" transform="translate(28 47)"/>
</clipPath>
</defs>
</svg>
