<svg width="32" height="24" viewBox="0 0 32 24" fill="none" xmlns="http://www.w3.org/2000/svg">
<g clip-path="url(#clip0_924_6573)">
<path d="M7.505 0H24.49V24H7.5L7.505 0Z" fill="white"/>
<path d="M-0.985352 0H7.50465V24H-0.985352V0ZM24.4896 0H32.9796V24H24.4946L24.4896 0ZM10.0496 11.6L9.38465 11.82L12.4546 14.52C12.6896 15.205 12.3746 15.41 12.1746 15.77L15.5047 15.35L15.4247 18.7L16.1196 18.685L15.9646 15.355L19.2997 15.755C19.0947 15.32 18.9096 15.09 19.0996 14.395L22.1646 11.845L21.6297 11.645C21.1896 11.305 21.8197 10.015 21.9097 9.2C21.9097 9.2 20.1246 9.815 20.0096 9.49L19.5497 8.615L17.9196 10.405C17.7446 10.45 17.6696 10.38 17.6246 10.23L18.3746 6.49L17.1847 7.16C17.078 7.20333 16.9913 7.16667 16.9247 7.05L15.7746 4.75L14.5946 7.14C14.5013 7.22333 14.418 7.235 14.3446 7.175L13.1996 6.54L13.8847 10.245C13.8296 10.395 13.6996 10.435 13.5496 10.355L11.9896 8.59C11.7896 8.915 11.6496 9.445 11.3796 9.565C11.1096 9.685 10.2046 9.34 9.59965 9.215C9.80965 9.955 10.4496 11.195 10.0496 11.6Z" fill="#D52B1E"/>
</g>
<defs>
<clipPath id="clip0_924_6573">
<path d="M0 0H32V24H0V0Z" fill="white"/>
</clipPath>
</defs>
</svg>
