<svg width="30" height="31" viewBox="0 0 30 31" fill="none" xmlns="http://www.w3.org/2000/svg">
<path d="M11.1621 4.53125L13.2012 8H13.125H8.90625C7.61133 8 6.5625 6.95117 6.5625 5.65625C6.5625 4.36133 7.61133 3.3125 8.90625 3.3125H9.03516C9.9082 3.3125 10.7227 3.77539 11.1621 4.53125ZM3.75 5.65625C3.75 6.5 3.95508 7.29688 4.3125 8H1.875C0.837891 8 0 8.83789 0 9.875V13.625C0 14.6621 0.837891 15.5 1.875 15.5H28.125C29.1621 15.5 30 14.6621 30 13.625V9.875C30 8.83789 29.1621 8 28.125 8H25.6875C26.0449 7.29688 26.25 6.5 26.25 5.65625C26.25 2.80859 23.9414 0.5 21.0938 0.5H20.9648C19.0957 0.5 17.3613 1.49023 16.4121 3.10156L15 5.50977L13.5879 3.10742C12.6387 1.49023 10.9043 0.5 9.03516 0.5H8.90625C6.05859 0.5 3.75 2.80859 3.75 5.65625ZM23.4375 5.65625C23.4375 6.95117 22.3887 8 21.0938 8H16.875H16.7988L18.8379 4.53125C19.2832 3.77539 20.0918 3.3125 20.9648 3.3125H21.0938C22.3887 3.3125 23.4375 4.36133 23.4375 5.65625ZM1.875 17.375V27.6875C1.875 29.2402 3.13477 30.5 4.6875 30.5H13.125V17.375H1.875ZM16.875 30.5H25.3125C26.8652 30.5 28.125 29.2402 28.125 27.6875V17.375H16.875V30.5Z" fill="#0066B3"/>
</svg>
