<svg width="34" height="31" viewBox="0 0 34 31" fill="none" xmlns="http://www.w3.org/2000/svg">
<path d="M28.2598 11.7483C30.2637 11.7483 33.75 13.4475 33.75 15.4983C33.75 17.6077 30.2637 19.2483 28.2598 19.2483H21.4277L15.5391 29.5549C15.2051 30.1409 14.584 30.4983 13.9102 30.4983H10.6172C9.99609 30.4983 9.54492 29.9006 9.71484 29.303L12.5859 19.2483H6.5625L4.03125 22.6233C3.85547 22.8577 3.57422 22.9983 3.28125 22.9983H0.820312C0.363281 22.9983 0 22.6292 0 22.178C0 22.1018 0.0117187 22.0256 0.0292969 21.9495L1.875 15.4983L0.0292969 9.04712C0.00585937 8.97095 0 8.89478 0 8.8186C0 8.36157 0.369141 7.99829 0.820312 7.99829H3.28125C3.57422 7.99829 3.85547 8.13892 4.03125 8.37329L6.5625 11.7483H12.5918L9.7207 1.6936C9.54492 1.09595 9.99609 0.498291 10.6172 0.498291H13.9102C14.584 0.498291 15.2051 0.861572 15.5391 1.44165L21.4277 11.7483H28.2598Z" fill="#0066B3"/>
</svg>
