<svg width="31" height="31" viewBox="0 0 31 31" fill="none" xmlns="http://www.w3.org/2000/svg">
<path d="M17.1537 1.55298C16.8432 0.908447 16.1869 0.498291 15.4662 0.498291C14.7455 0.498291 14.0951 0.908447 13.7787 1.55298L10.0111 9.30493L1.59706 10.5471C0.893932 10.6526 0.307995 11.1448 0.091198 11.8186C-0.125599 12.4924 0.0501822 13.2366 0.554088 13.7346L6.65956 19.7756L5.21815 28.3127C5.10096 29.0159 5.39393 29.7307 5.97401 30.1467C6.55409 30.5627 7.32167 30.6155 7.95448 30.2815L15.4721 26.2678L22.9896 30.2815C23.6224 30.6155 24.39 30.5686 24.9701 30.1467C25.5502 29.7249 25.8432 29.0159 25.726 28.3127L24.2787 19.7756L30.3842 13.7346C30.8881 13.2366 31.0697 12.4924 30.8471 11.8186C30.6244 11.1448 30.0443 10.6526 29.3412 10.5471L20.9213 9.30493L17.1537 1.55298Z" fill="#0066B3"/>
</svg>
