<svg width="34" height="23" viewBox="0 0 34 23" fill="none" xmlns="http://www.w3.org/2000/svg">
<path d="M3.75 0.248291C1.68164 0.248291 0 1.92993 0 3.99829V7.74829C0 8.26392 0.433594 8.66821 0.919922 8.83813C2.02148 9.21899 2.8125 10.2678 2.8125 11.4983C2.8125 12.7288 2.02148 13.7776 0.919922 14.1584C0.433594 14.3284 0 14.7327 0 15.2483V18.9983C0 21.0667 1.68164 22.7483 3.75 22.7483H30C32.0684 22.7483 33.75 21.0667 33.75 18.9983V15.2483C33.75 14.7327 33.3164 14.3284 32.8301 14.1584C31.7285 13.7776 30.9375 12.7288 30.9375 11.4983C30.9375 10.2678 31.7285 9.21899 32.8301 8.83813C33.3164 8.66821 33.75 8.26392 33.75 7.74829V3.99829C33.75 1.92993 32.0684 0.248291 30 0.248291H3.75ZM7.5 6.81079V16.1858C7.5 16.7014 7.92188 17.1233 8.4375 17.1233H25.3125C25.8281 17.1233 26.25 16.7014 26.25 16.1858V6.81079C26.25 6.29517 25.8281 5.87329 25.3125 5.87329H8.4375C7.92188 5.87329 7.5 6.29517 7.5 6.81079ZM5.625 5.87329C5.625 4.83618 6.46289 3.99829 7.5 3.99829H26.25C27.2871 3.99829 28.125 4.83618 28.125 5.87329V17.1233C28.125 18.1604 27.2871 18.9983 26.25 18.9983H7.5C6.46289 18.9983 5.625 18.1604 5.625 17.1233V5.87329Z" fill="#0066B3"/>
</svg>
