<svg width="12" height="12" viewBox="0 0 12 12" fill="none" xmlns="http://www.w3.org/2000/svg">
<path d="M7.83963 11.5387C5.91261 11.5387 4.34483 9.97128 4.34483 8.04465V7.86024H4.16039C3.22638 7.86024 2.34919 7.49679 1.68969 6.83743C1.0302 6.17699 0.665602 5.29999 0.666674 4.36616C0.666674 3.43233 1.0302 2.55639 1.68969 1.89596C2.34919 1.23552 3.22745 0.87207 4.16039 0.87207H7.83963C8.77364 0.87207 9.65082 1.23552 10.3103 1.89488C10.9698 2.55425 11.3333 3.43233 11.3333 4.36616V8.04465C11.3333 9.97128 9.76557 11.5387 7.83855 11.5387M4.16039 2.50493C3.66282 2.50493 3.19528 2.69791 2.84462 3.05065C2.49289 3.40231 2.29986 3.86976 2.29986 4.36616C2.29986 4.86256 2.49289 5.33108 2.84462 5.68166C3.19635 6.03332 3.66389 6.22738 4.16039 6.22738H5.97802V8.04465C5.97802 9.07068 6.81339 9.90587 7.83963 9.90587C8.86586 9.90587 9.70122 9.07068 9.70122 8.04465V4.36616C9.70122 3.86869 9.5082 3.40124 9.15647 3.04958C8.80474 2.69792 8.3372 2.50493 7.83963 2.50493H4.16039Z" fill="white"/>
</svg>
